HIERARCHY
ROOT mixamorig:Hips
{
	OFFSET -0.000007 99.791939 0.000048
	CHANNELS 6 Xposition Yposition Zposition Xrotation Yrotation Zrotation
	JOINT mixamorig:Spine
	{
		OFFSET -0.000008 9.923462 -1.227335
		CHANNELS 3 Xrotation Yrotation Zrotation
		JOINT mixamorig:Spine1
		{
			OFFSET -0.001162 11.645439 -1.422341
			CHANNELS 3 Xrotation Yrotation Zrotation
			JOINT mixamorig:Spine2
			{
				OFFSET -0.001082 13.360199 -1.626459
				CHANNELS 3 Xrotation Yrotation Zrotation
				JOINT mixamorig:Neck
				{
					OFFSET -0.001294 15.032486 0.792904
					CHANNELS 3 Xrotation Yrotation Zrotation
					JOINT mixamorig:Head
					{
						OFFSET -0.000902 10.321838 3.142429
						CHANNELS 3 Xrotation Yrotation Zrotation
						JOINT mixamorig:HeadTop_End
						{
							OFFSET -0.001464 18.474670 6.636400
							CHANNELS 3 Xrotation Yrotation Zrotation
							End Site
							{
								OFFSET -0.001724 19.630463 0.000000
							}
						}
					}
				}
				JOINT mixamorig:LeftShoulder
				{
					OFFSET 6.105025 9.110947 0.705547
					CHANNELS 3 Xrotation Yrotation Zrotation
					JOINT mixamorig:LeftArm
					{
						OFFSET 12.655060 -0.264816 -2.600928
						CHANNELS 3 Xrotation Yrotation Zrotation
						JOINT mixamorig:LeftForeArm
						{
							OFFSET 27.404680 0.002457 -0.000007
							CHANNELS 3 Xrotation Yrotation Zrotation
							JOINT mixamorig:LeftHand
							{
								OFFSET 27.614456 0.002457 0.000007
								CHANNELS 3 Xrotation Yrotation Zrotation
								JOINT mixamorig:LeftHandThumb1
								{
									OFFSET 3.789009 -2.166824 3.002973
									CHANNELS 3 Xrotation Yrotation Zrotation
									JOINT mixamorig:LeftHandThumb2
									{
										OFFSET 3.675636 -2.121704 2.122010
										CHANNELS 3 Xrotation Yrotation Zrotation
										JOINT mixamorig:LeftHandThumb3
										{
											OFFSET 3.394531 -1.959473 1.959746
											CHANNELS 3 Xrotation Yrotation Zrotation
											JOINT mixamorig:LeftHandThumb4
											{
												OFFSET 2.679504 -1.546753 1.546951
												CHANNELS 3 Xrotation Yrotation Zrotation
												End Site
												{
													OFFSET 2.400604 -1.530380 1.964751
												}
											}
										}
									}
								}
								JOINT mixamorig:LeftHandIndex1
								{
									OFFSET 12.266647 -0.230743 2.822040
									CHANNELS 3 Xrotation Yrotation Zrotation
									JOINT mixamorig:LeftHandIndex2
									{
										OFFSET 3.891968 0.000336 0.000037
										CHANNELS 3 Xrotation Yrotation Zrotation
										JOINT mixamorig:LeftHandIndex3
										{
											OFFSET 3.415161 0.000305 -0.000010
											CHANNELS 3 Xrotation Yrotation Zrotation
											JOINT mixamorig:LeftHandIndex4
											{
												OFFSET 3.077995 0.000275 -0.000009
												CHANNELS 3 Xrotation Yrotation Zrotation
												End Site
												{
													OFFSET 3.077988 0.000259 0.000131
												}
											}
										}
									}
								}
								JOINT mixamorig:LeftHandMiddle1
								{
									OFFSET 12.775536 0.001129 0.000014
									CHANNELS 3 Xrotation Yrotation Zrotation
									JOINT mixamorig:LeftHandMiddle2
									{
										OFFSET 3.613968 0.000320 0.000000
										CHANNELS 3 Xrotation Yrotation Zrotation
										JOINT mixamorig:LeftHandMiddle3
										{
											OFFSET 3.459763 0.000305 -0.000028
											CHANNELS 3 Xrotation Yrotation Zrotation
											JOINT mixamorig:LeftHandMiddle4
											{
												OFFSET 3.680191 0.000320 0.000031
												CHANNELS 3 Xrotation Yrotation Zrotation
												End Site
												{
													OFFSET 3.680191 0.000351 -0.004814
												}
											}
										}
									}
								}
								JOINT mixamorig:LeftHandRing1
								{
									OFFSET 12.147018 0.011063 -2.216636
									CHANNELS 3 Xrotation Yrotation Zrotation
									JOINT mixamorig:LeftHandRing2
									{
										OFFSET 3.601181 0.000320 0.000033
										CHANNELS 3 Xrotation Yrotation Zrotation
										JOINT mixamorig:LeftHandRing3
										{
											OFFSET 3.307320 0.000305 -0.000023
											CHANNELS 3 Xrotation Yrotation Zrotation
											JOINT mixamorig:LeftHandRing4
											{
												OFFSET 3.660118 0.000320 0.000000
												CHANNELS 3 Xrotation Yrotation Zrotation
												End Site
												{
													OFFSET 3.660103 0.000229 0.005616
												}
											}
										}
									}
								}
								JOINT mixamorig:LeftHandPinky1
								{
									OFFSET 10.908218 -0.225174 -4.725837
									CHANNELS 3 Xrotation Yrotation Zrotation
									JOINT mixamorig:LeftHandPinky2
									{
										OFFSET 4.136658 0.000351 0.001166
										CHANNELS 3 Xrotation Yrotation Zrotation
										JOINT mixamorig:LeftHandPinky3
										{
											OFFSET 2.594826 0.000244 -0.001180
											CHANNELS 3 Xrotation Yrotation Zrotation
											JOINT mixamorig:LeftHandPinky4
											{
												OFFSET 2.923874 0.000244 0.000018
												CHANNELS 3 Xrotation Yrotation Zrotation
												End Site
												{
													OFFSET 2.923851 0.000275 -0.003346
												}
											}
										}
									}
								}
							}
						}
					}
				}
				JOINT mixamorig:RightShoulder
				{
					OFFSET -6.106495 9.109970 0.705565
					CHANNELS 3 Xrotation Yrotation Zrotation
					JOINT mixamorig:RightArm
					{
						OFFSET -12.655020 -0.267136 -2.600890
						CHANNELS 3 Xrotation Yrotation Zrotation
						JOINT mixamorig:RightForeArm
						{
							OFFSET -27.404675 -0.002365 0.000019
							CHANNELS 3 Xrotation Yrotation Zrotation
							JOINT mixamorig:RightHand
							{
								OFFSET -27.614464 -0.002396 0.000031
								CHANNELS 3 Xrotation Yrotation Zrotation
								JOINT mixamorig:RightHandThumb1
								{
									OFFSET -3.788620 -2.167480 3.002977
									CHANNELS 3 Xrotation Yrotation Zrotation
									JOINT mixamorig:RightHandThumb2
									{
										OFFSET -3.675247 -2.122314 2.122009
										CHANNELS 3 Xrotation Yrotation Zrotation
										JOINT mixamorig:RightHandThumb3
										{
											OFFSET -3.394188 -1.960129 1.959755
											CHANNELS 3 Xrotation Yrotation Zrotation
											JOINT mixamorig:RightHandThumb4
											{
												OFFSET -2.679230 -1.547195 1.546953
												CHANNELS 3 Xrotation Yrotation Zrotation
												End Site
												{
													OFFSET -2.398781 -1.531693 1.965949
												}
											}
										}
									}
								}
								JOINT mixamorig:RightHandIndex1
								{
									OFFSET -12.266594 -0.232895 2.822051
									CHANNELS 3 Xrotation Yrotation Zrotation
									JOINT mixamorig:RightHandIndex2
									{
										OFFSET -3.891968 -0.000336 0.000040
										CHANNELS 3 Xrotation Yrotation Zrotation
										JOINT mixamorig:RightHandIndex3
										{
											OFFSET -3.415161 -0.000305 -0.000006
											CHANNELS 3 Xrotation Yrotation Zrotation
											JOINT mixamorig:RightHandIndex4
											{
												OFFSET -3.077988 -0.000275 0.000006
												CHANNELS 3 Xrotation Yrotation Zrotation
												End Site
												{
													OFFSET -3.077980 0.000229 -0.008454
												}
											}
										}
									}
								}
								JOINT mixamorig:RightHandMiddle1
								{
									OFFSET -12.775528 -0.001114 0.000025
									CHANNELS 3 Xrotation Yrotation Zrotation
									JOINT mixamorig:RightHandMiddle2
									{
										OFFSET -3.613968 -0.000320 0.000005
										CHANNELS 3 Xrotation Yrotation Zrotation
										JOINT mixamorig:RightHandMiddle3
										{
											OFFSET -3.459763 -0.000305 -0.000025
											CHANNELS 3 Xrotation Yrotation Zrotation
											JOINT mixamorig:RightHandMiddle4
											{
												OFFSET -3.680191 -0.000320 0.000034
												CHANNELS 3 Xrotation Yrotation Zrotation
												End Site
												{
													OFFSET -3.680168 -0.000031 0.012581
												}
											}
										}
									}
								}
								JOINT mixamorig:RightHandRing1
								{
									OFFSET -12.147003 0.008942 -2.216624
									CHANNELS 3 Xrotation Yrotation Zrotation
									JOINT mixamorig:RightHandRing2
									{
										OFFSET -3.601196 -0.000320 0.000037
										CHANNELS 3 Xrotation Yrotation Zrotation
										JOINT mixamorig:RightHandRing3
										{
											OFFSET -3.307312 -0.000290 -0.000019
											CHANNELS 3 Xrotation Yrotation Zrotation
											JOINT mixamorig:RightHandRing4
											{
												OFFSET -3.660118 -0.000320 0.000002
												CHANNELS 3 Xrotation Yrotation Zrotation
												End Site
												{
													OFFSET -3.660110 0.000107 0.002180
												}
											}
										}
									}
								}
								JOINT mixamorig:RightHandPinky1
								{
									OFFSET -10.908173 -0.227081 -4.725826
									CHANNELS 3 Xrotation Yrotation Zrotation
									JOINT mixamorig:RightHandPinky2
									{
										OFFSET -4.136642 -0.000366 0.000029
										CHANNELS 3 Xrotation Yrotation Zrotation
										JOINT mixamorig:RightHandPinky3
										{
											OFFSET -2.594841 -0.000229 -0.000036
											CHANNELS 3 Xrotation Yrotation Zrotation
											JOINT mixamorig:RightHandPinky4
											{
												OFFSET -2.923874 -0.000259 0.000021
												CHANNELS 3 Xrotation Yrotation Zrotation
												End Site
												{
													OFFSET -2.923820 0.000336 -0.012876
												}
											}
										}
									}
								}
							}
						}
					}
				}
			}
		}
	}
	JOINT mixamorig:LeftUpLeg
	{
		OFFSET 9.124458 -6.656387 -0.055378
		CHANNELS 3 Xrotation Yrotation Zrotation
		JOINT mixamorig:LeftLeg
		{
			OFFSET 0.244681 -40.595421 -0.515619
			CHANNELS 3 Xrotation Yrotation Zrotation
			JOINT mixamorig:LeftFoot
			{
				OFFSET -0.244669 -42.047928 -2.059156
				CHANNELS 3 Xrotation Yrotation Zrotation
				JOINT mixamorig:LeftToeBase
				{
					OFFSET 0.373535 -7.208548 13.966561
					CHANNELS 3 Xrotation Yrotation Zrotation
					JOINT mixamorig:LeftToe_End
					{
						OFFSET -0.142059 -0.175224 9.997455
						CHANNELS 3 Xrotation Yrotation Zrotation
						End Site
						{
							OFFSET -0.142060 -0.175223 9.997459
						}
					}
				}
			}
		}
	}
	JOINT mixamorig:RightUpLeg
	{
		OFFSET -9.124448 -6.656403 -0.055378
		CHANNELS 3 Xrotation Yrotation Zrotation
		JOINT mixamorig:RightLeg
		{
			OFFSET -0.244680 -40.595459 -0.514290
			CHANNELS 3 Xrotation Yrotation Zrotation
			JOINT mixamorig:RightFoot
			{
				OFFSET 0.244670 -42.047859 -2.060535
				CHANNELS 3 Xrotation Yrotation Zrotation
				JOINT mixamorig:RightToeBase
				{
					OFFSET -0.373535 -7.208539 13.966558
					CHANNELS 3 Xrotation Yrotation Zrotation
					JOINT mixamorig:RightToe_End
					{
						OFFSET 0.141798 -0.175009 9.997463
						CHANNELS 3 Xrotation Yrotation Zrotation
						End Site
						{
							OFFSET 0.141798 -0.175009 9.997467
						}
					}
				}
			}
		}
	}
}
MOTION
Frames: 6
Frame Time: 0.033333
0.059718 92.629349 0.475488 7.695251 8.617719 -1.251458 13.516611 1.111560 -2.829779 0.810348 0.480225 0.053358 0.808806 0.482555 0.052283 -2.824474 -1.217328 2.334807 -19.802370 -7.221217 -1.804508 0.000000 0.000000 -0.000000 0.392769 -6.428954 -17.181759 -13.597745 1.830790 -62.397822 45.778796 -12.847485 13.624500 -5.350012 0.273620 30.186052 46.385922 -9.588336 30.228877 -1.714705 23.028148 -6.195114 -25.227792 -32.358585 21.696530 0.000001 0.000000 0.000004 -0.213363 4.378189 -44.061806 1.621484 4.046682 -43.665116 1.621501 4.047378 -43.665164 0.000001 0.000006 0.000001 1.932379 6.662642 -51.948534 2.390645 4.721511 -53.700180 2.557646 4.839346 -55.703710 0.000002 0.000001 0.000003 6.765072 11.733848 -46.257811 1.502927 3.918981 -41.960530 1.642191 4.069111 -43.959565 -0.000001 -0.000002 0.000000 9.581490 15.834477 -44.610595 1.184831 3.518413 -37.320447 1.200912 3.581565 -37.321205 0.000002 0.000001 -0.000002 0.619061 9.816055 17.939371 25.817712 49.381079 44.735710 -29.359527 19.547052 -6.226404 -2.050781 12.714640 -30.369210 6.161326 -3.580637 0.884169 0.099293 -6.536197 -0.166230 4.627721 -0.659301 0.442273 0.000005 0.000001 0.000001 -0.579040 -3.404631 43.373289 1.293424 -3.221814 43.719990 1.293378 -3.222313 43.720027 0.000001 0.000000 -0.000000 1.418008 -5.605152 51.273578 1.905858 -3.758578 53.752602 2.038700 -3.852303 55.754817 0.000002 0.000001 -0.000001 6.281854 -10.817101 45.650584 1.198747 -3.120029 42.014847 1.309645 -3.239670 44.014432 0.000000 0.000006 0.000000 9.068746 -14.966754 44.054918 0.957401 -2.829787 37.373958 0.958058 -2.832015 37.374071 0.000000 -0.000003 -0.000001 -16.091743 -2.859550 19.614710 15.771455 5.452163 6.915823 -3.361453 1.862744 -23.567795 -0.843448 1.605963 -2.258946 0.000000 -0.000003 -0.000000 -15.347872 3.250011 -19.328865 16.909293 1.607814 -7.377797 -8.151498 -2.354234 19.175749 -0.597331 -2.309424 3.753381 -0.000000 -0.000000 0.000000 
-0.227263 91.917336 1.025972 7.266156 9.297423 -1.579888 13.101060 1.318127 -2.893319 0.747328 0.536934 0.102655 0.745540 0.538726 0.101068 -3.205718 -1.259499 2.313084 -20.383021 -7.669858 -1.587784 0.000000 -0.000000 0.000000 0.381195 -6.077845 -17.337011 -13.299102 1.744666 -62.216425 49.249226 -11.918757 15.827104 -5.688701 -2.633489 23.953403 40.432415 -11.446957 33.396210 8.455046 16.848586 -12.476570 -26.340734 -28.916029 10.783650 0.000003 -0.000003 0.000005 -0.332486 4.017042 -41.067127 1.710331 4.137548 -44.910031 1.710334 4.138248 -44.910075 0.000000 0.000002 -0.000000 1.503296 6.253197 -49.065678 2.331728 4.677802 -52.981173 2.497224 4.797719 -54.984426 0.000000 -0.000003 -0.000002 5.520719 10.966495 -41.222606 1.484996 3.898984 -41.697513 1.623579 4.049753 -43.696412 0.000001 -0.000006 -0.000001 9.424263 13.542916 -48.577781 1.632053 4.042124 -44.068039 1.650531 4.103240 -44.069412 -0.000002 -0.000003 -0.000000 0.408051 9.783098 19.034033 25.401221 48.307121 43.193290 -46.526572 10.534927 6.029363 -2.624540 12.506240 -28.284780 -0.155966 -0.175063 -0.583618 8.379785 -0.376821 5.947572 8.548785 1.915753 10.490599 -0.000000 0.000002 0.000002 -0.652071 -3.088441 40.376636 1.364183 -3.294103 44.964979 1.364146 -3.294599 44.965003 -0.000001 -0.000004 -0.000000 1.039960 -5.228952 48.391641 1.858935 -3.723827 53.033929 1.990617 -3.819202 55.036032 0.000003 0.000002 0.000003 5.118965 -10.110172 40.620996 1.184453 -3.104119 41.751796 1.294807 -3.224270 43.751265 0.000000 0.000002 -0.000000 8.873123 -12.616903 47.979791 1.315568 -3.244954 44.123889 1.316329 -3.247108 44.123999 0.000000 0.000001 0.000000 -17.101286 -4.884627 18.937454 19.606256 6.844428 8.771591 -5.285268 2.056431 -25.326838 -0.660951 1.802727 -2.340777 0.000000 0.000001 0.000000 -16.081479 5.047004 -17.220510 21.578760 -1.047999 -9.812145 -11.012815 -2.693100 20.420565 -0.803547 -3.405596 4.107561 0.000000 -0.000001 0.000000 
-0.439802 90.407997 1.347957 6.625029 10.104527 -1.671172 13.207863 1.301389 -2.794214 0.721254 0.530095 0.142199 0.719553 0.532025 0.139526 -3.740621 -1.275819 2.242220 -21.411239 -7.875922 -1.835220 -0.000000 -0.000000 -0.000000 0.407947 -6.194883 -17.129495 -15.038256 1.288503 -60.822903 49.877395 -12.870964 17.305386 -6.693727 -6.791922 18.816936 36.755119 -20.743310 39.335032 9.818776 15.986261 -13.329353 -26.933536 -24.577964 -3.275279 -0.000000 0.000001 0.000001 -0.846723 3.125943 -38.374328 1.695177 4.122320 -44.699466 1.695174 4.123010 -44.699521 -0.000000 0.000001 -0.000000 2.918280 7.712857 -47.140268 2.143265 4.529986 -50.633220 2.303652 4.656555 -52.635658 0.000002 -0.000001 -0.000001 7.099609 14.139198 -40.850549 1.381043 3.779296 -40.144935 1.515474 3.933759 -42.143316 -0.000001 0.000001 0.000001 11.915543 14.845254 -55.335409 1.506040 3.906857 -42.257066 1.523895 3.968538 -42.258288 -0.000000 -0.000003 0.000001 -0.079584 10.072825 21.259835 22.882163 46.834337 41.323481 -58.050884 0.053922 12.081855 0.338993 14.961934 -39.699675 -4.912590 10.428416 0.304025 9.437460 0.547683 6.833200 12.021117 6.842738 23.995011 0.000002 0.000001 0.000001 -1.120078 -2.234533 37.673589 1.352101 -3.281982 44.754415 1.352085 -3.282492 44.754429 -0.000000 0.000001 0.000000 2.467323 -6.733837 46.485472 1.708882 -3.606266 50.687080 1.836516 -3.706941 52.688633 0.000002 0.000001 0.000001 6.669948 -13.308823 40.291675 1.101609 -3.008887 40.198805 1.208691 -3.131970 42.197961 0.000000 -0.000001 -0.000000 11.236039 -13.865247 54.722817 1.214700 -3.137763 42.312598 1.215435 -3.139928 42.312711 0.000000 -0.000000 0.000002 -19.646851 -7.509434 17.345125 26.536745 8.257558 11.487656 -8.577450 2.743612 -27.818097 -0.628767 2.578818 -2.816594 -0.000000 -0.000002 -0.000000 -17.938146 6.853761 -14.734048 28.426516 -3.922589 -13.346467 -14.884580 -3.435058 22.692194 -1.083391 -4.815382 4.553163 -0.000000 -0.000000 -0.000000 
-0.527141 88.652153 1.572003 5.746318 11.018148 -1.457194 13.519428 0.934605 -2.447022 0.718201 0.416965 0.137449 0.716600 0.421239 0.136782 -4.244473 -1.291810 2.202538 -22.541637 -8.012618 -2.604268 0.000000 -0.000000 0.000000 0.565375 -6.523680 -15.489286 -17.258385 1.036986 -58.166922 44.351386 -19.575460 17.705896 -7.773889 -11.614079 19.777252 24.699876 -25.312357 38.784502 12.627281 14.181850 -15.086950 -27.521475 -25.258521 -5.090788 -0.000005 0.000000 0.000006 -2.714902 -0.934002 -31.460394 1.547414 3.967799 -42.605351 1.547449 3.968506 -42.605364 0.000001 -0.000003 -0.000002 3.054144 8.810537 -35.551900 2.012954 4.420167 -48.962959 2.169543 4.551333 -50.964795 -0.000000 -0.000002 -0.000000 6.345907 16.606312 -32.790437 1.440753 3.848846 -41.042696 1.577595 4.001197 -43.041393 0.000000 -0.000000 -0.000001 15.700687 17.101011 -61.316848 1.126229 3.439619 -36.359317 1.141964 3.503025 -36.359993 -0.000000 -0.000001 -0.000000 -0.512675 9.985920 23.395580 17.051559 47.611551 39.494524 -65.563157 -8.082699 14.136759 4.135517 18.827946 -53.289870 -16.554234 13.354318 2.642588 11.630721 2.420529 8.674762 10.036288 9.151175 26.251730 0.000001 0.000003 -0.000003 -2.855689 1.729306 30.697780 1.234401 -3.159067 42.660043 1.234369 -3.159561 42.660098 0.000000 -0.000000 0.000001 2.749491 -8.015767 34.935243 1.605106 -3.518917 49.017344 1.729722 -3.623252 51.018515 0.000000 0.000000 0.000000 5.995837 -15.900896 32.295119 1.149225 -3.064233 41.096801 1.258194 -3.185631 43.096175 -0.000000 -0.000000 -0.000000 14.886575 -16.105099 60.694550 0.910432 -2.767268 36.412281 0.911070 -2.769507 36.412340 0.000001 -0.000001 -0.000001 -21.639086 -9.630111 15.019902 32.306928 9.090298 14.908425 -11.524975 3.616781 -30.516268 -0.804604 3.864578 -3.652364 -0.000000 -0.000001 -0.000000 -19.112555 7.891743 -12.346452 33.908498 -6.673184 -17.454014 -18.155575 -4.340325 25.515987 -1.455573 -6.333214 5.120938 -0.000000 0.000000 0.000000 
-0.491902 87.504364 2.047914 4.476532 11.384553 -1.049695 13.540069 0.650351 -2.023118 0.747840 0.324406 0.081141 0.745909 0.333035 0.084002 -4.419422 -1.358595 2.271204 -23.351691 -8.456726 -3.343694 -0.000000 0.000000 0.000000 0.837704 -6.386684 -12.388869 -17.194772 2.008151 -53.943243 35.882016 -29.063445 15.821810 -8.183384 -16.986687 23.171726 9.560375 -26.560174 34.041366 20.665376 8.790056 -20.069980 -28.097228 -29.016160 -0.001095 -0.000002 0.000000 0.000004 -3.966700 -6.917492 -23.338784 1.384330 3.783182 -40.192644 1.384345 3.783887 -40.192672 0.000001 -0.000001 0.000002 1.470484 7.599819 -21.526755 1.807282 4.232865 -46.237037 1.957419 4.371319 -48.237863 0.000001 0.000002 -0.000001 3.442922 14.938365 -21.849022 1.500476 3.916258 -41.924763 1.639661 4.066497 -43.923796 -0.000001 -0.000002 0.000001 17.665905 18.428014 -62.967678 0.848587 3.023158 -31.460217 0.862398 3.087816 -31.460469 0.000000 -0.000000 -0.000002 -0.584687 9.111811 24.380920 7.910966 51.919338 40.447253 -72.713374 -14.956029 16.739026 7.940188 29.689538 -63.944757 -29.471870 11.326978 5.597952 20.099857 4.837758 12.920941 5.655919 10.456749 22.009791 -0.000004 0.000001 -0.000001 -3.946382 7.575880 22.458220 1.104450 -3.012181 40.246760 1.104416 -3.012645 40.246825 -0.000002 -0.000000 0.000001 1.317028 -7.042387 20.913904 1.441296 -3.369936 46.291877 1.560804 -3.480064 48.292415 -0.000000 0.000000 0.000001 3.215229 -14.398616 21.360949 1.196792 -3.117879 41.979101 1.307632 -3.237585 43.978683 -0.000001 -0.000001 0.000000 16.805614 -17.441595 62.346684 0.687649 -2.436760 31.509339 0.688194 -2.439051 31.509435 -0.000000 -0.000000 -0.000001 -21.868638 -10.269866 13.683143 35.640692 8.887136 16.803964 -13.672141 4.356153 -31.919660 -0.943327 4.872594 -4.290441 0.000000 -0.000002 0.000000 -18.855459 8.682742 -11.230538 37.346959 -8.080478 -19.137027 -20.607697 -5.032712 26.835765 -1.696040 -7.963615 5.406947 0.000000 0.000001 -0.000000 
-0.267411 87.918571 3.260441 2.607175 10.492675 -0.706223 12.737294 1.151364 -1.507142 0.755231 0.443947 -0.004640 0.752457 0.456997 0.001184 -4.000417 -1.502546 2.348414 -22.370372 -9.446900 -3.418341 -0.000001 -0.000000 -0.000000 1.043133 -5.679459 -9.391818 -12.156374 -1.408256 -52.778132 23.991060 -40.114695 9.764246 -7.331668 -22.663326 28.489675 8.417168 -28.694274 36.239652 20.113082 9.171035 -19.732080 -28.855053 -30.711215 -0.680072 -0.000002 0.000001 0.000001 -4.330809 -6.856815 -24.998677 1.886519 4.306605 -47.302595 1.886524 4.307334 -47.302639 0.000002 -0.000002 -0.000001 2.581384 8.809672 -29.557944 1.855057 4.277977 -46.880629 2.006726 4.414732 -48.881721 0.000004 0.000001 0.000005 5.879665 15.780855 -31.680395 1.621071 4.046233 -43.661551 1.764727 4.192204 -45.661164 -0.000001 -0.000000 -0.000001 19.221592 17.283196 -68.349887 1.046510 3.327729 -35.014640 1.061710 3.391490 -35.015190 0.000001 0.000002 0.000001 -0.251464 7.562152 23.952247 -2.540510 56.949684 46.112339 -70.906086 -13.541384 21.223838 8.503357 48.602673 -62.846319 -30.415550 13.687909 3.982502 19.484327 4.680245 12.644120 2.543983 13.312985 23.496242 0.000001 0.000001 -0.000001 -4.325341 7.551609 24.122061 1.504519 -3.428598 47.357335 1.504475 -3.429097 47.357376 0.000002 -0.000001 0.000000 2.343595 -8.114732 28.952742 1.479341 -3.405807 46.935421 1.600080 -3.514606 48.936113 -0.000002 -0.000002 -0.000001 5.549775 -15.089216 31.176624 1.292901 -3.221282 43.716083 1.407258 -3.337591 45.716061 -0.000001 -0.000001 0.000000 18.268340 -16.271123 67.693663 0.846489 -2.678495 35.066700 0.847099 -2.680737 35.066782 0.000002 -0.000001 -0.000001 -18.869685 -8.200155 14.363309 34.643529 7.752057 16.496882 -14.155570 4.506939 -31.405104 -0.437470 5.126006 -4.324137 0.000000 0.000001 0.000000 -15.819982 8.571193 -10.946222 36.106128 -7.773583 -19.001778 -20.807951 -5.067097 26.508833 -1.527876 -8.866755 4.972995 -0.000000 0.000000 0.000000 
